<svg xmlns="http://www.w3.org/2000/svg" viewBox="0 0 1880.134 263.455"><defs><style>.a{fill:#fff;}</style></defs><g transform="translate(-6572 793.175)"><path class="a" d="M69.52,121.479h71.463a351.475,351.475,0,0,1,35.868,1.123c46.315,5.241,69.115,42.572,69.115,76.568,0,16.811-5.615,35.493-20.929,47.642,16.437,11.57,27.667,34.03,27.667,57.851,0,39.986-31.376,74.866-83.68,74.866H69.52Zm93,98.994a19.6,19.6,0,0,0,19.806-19.431,19.908,19.908,0,0,0-19.806-19.772h-29.5v39.237Zm6.364,98.994a19.159,19.159,0,0,0,20.146-19.431,19.5,19.5,0,0,0-20.146-19.806H133.02v39.237Z" transform="translate(6502.48 -914.543)"/><path class="a" d="M302.968,362.476v16.811H239.5V362.476c0-28.79-20.418-52.3-50.433-52.3v69.115H125.5V121.507h41.108A426.94,426.94,0,0,1,213.3,123c50.807,5.615,87.8,41.449,87.8,91.882,0,29.538-12.727,51.93-34.745,66.5C289.866,298.567,302.968,325.859,302.968,362.476ZM189,250.38c26.169,0,48.561-7.453,48.561-33.622S215.17,181.3,189,181.3Z" transform="translate(6637.001 -914.572)"/><path class="a" d="M363.109,121.43V379.209h-63.5V341.776H243.56v37.433h-63.5V299.238C180.06,176.355,256.628,121.43,363.109,121.43Zm-63.5,158.751v-84.4c-34.371,13.442-51.556,42.946-55.3,84.4Z" transform="translate(6768.11 -914.495)"/><path class="a" d="M237.14,121.43h63.534V379.209H237.14Z" transform="translate(6905.274 -914.495)"/><path class="a" d="M444.02,121.43V379.209h-63.5V299.238c0-51.556-18.308-86.3-57.851-99.368V379.209H259.1V121.43c51.556,0,92.256,16.437,121.42,44.443V121.43Z" transform="translate(6958.045 -914.495)"/><g transform="translate(840 -280.21)"><path class="a" d="M70.216,396.719h74.028c15.351,0,22.26-7.292,22.26-16.034,0-9.85-8.529-16.417-17.057-19.36-32.835-10.917-47.8-15.65-60.169-28.443a72.023,72.023,0,0,1-19.7-52.152c0-35.777,19.317-65.67,55.819-73.346,6.183-1.45,13.134-2.175,38.378-2.175h34.114v60.169H149.02c-12.793,0-17.526,6.951-17.526,15.692s5.117,16.076,16.417,19.36c24.818,7.292,44.86,13.134,58.378,24.775,14.968,12.793,22.26,32.835,22.26,54.37,0,46.353-34.669,77.354-76.757,77.354H70.216Z" transform="translate(6502.501 -711.903)"/><path class="a" d="M277.244,265.379H220.7V456.93H158.654V265.379H102.11V205.21H277.244Z" transform="translate(6608.855 -711.903)"/><path class="a" d="M140.706,335.509A131.724,131.724,0,1,1,272.046,467.19a130.274,130.274,0,0,1-131.34-131.681Zm201.4.725c0-38.378-31.769-71.128-69.678-71.128a70.958,70.958,0,0,0-69.721,71.128,69.721,69.721,0,1,0,139.4,0Z" transform="translate(6734.818 -716.704)"/><path class="a" d="M377.57,440.562v16.417H315.525V440.562c0-28.1-20.042-51.171-49.252-51.171v67.5h-62V205.3H244.4a419.849,419.849,0,0,1,45.585,1.45c49.636,5.458,85.755,40.51,85.755,89.55a73.985,73.985,0,0,1-34.114,64.9C364.777,378.176,377.57,404.785,377.57,440.562ZM266.273,331.1c25.586,0,47.419-7.292,47.419-32.835s-21.876-34.669-47.419-34.669Z" transform="translate(6942.333 -711.952)"/><path class="a" d="M247.05,205.21h62c34.114,0,66.779,18.209,79.529,36.46,12.793-18.251,45.628-36.46,79.529-36.46h62.045V456.8H468.11V267.213c-23.709,1.109-51.171,17.867-51.171,52.92v136.8h-56.8v-136.8c0-35.052-27.377-51.811-51.171-52.92V456.93H247.05Z" transform="translate(7081.979 -711.903)"/></g></g></svg>